<svg width="330" height="82" viewBox="0 0 330 82" fill="none" xmlns="http://www.w3.org/2000/svg">
<g clip-path="url(#clip0_249_63)">
<path d="M91.5773 11.528V10.52H101.513C103.433 10.52 104.957 10.784 106.085 11.312C107.213 11.84 108.017 12.536 108.497 13.4C109.001 14.264 109.253 15.224 109.253 16.28V17.252C109.253 18.5 108.857 19.58 108.065 20.492C107.297 21.38 106.169 22.016 104.681 22.4C106.505 22.712 107.897 23.36 108.857 24.344C109.841 25.328 110.333 26.564 110.333 28.052V29.06C110.333 30.14 110.081 31.136 109.577 32.048C109.073 32.936 108.233 33.656 107.057 34.208C105.905 34.736 104.357 35 102.413 35H91.5773V33.992L93.5573 33.74C93.9413 33.692 94.1693 33.596 94.2413 33.452C94.3133 33.284 94.3493 32.792 94.3493 31.976V13.544C94.3493 12.728 94.3133 12.248 94.2413 12.104C94.1693 11.936 93.9413 11.828 93.5573 11.78L91.5773 11.528ZM101.513 11.78H98.6693V21.86H101.513C102.545 21.86 103.325 21.512 103.853 20.816C104.381 20.096 104.645 18.968 104.645 17.432V16.28C104.645 14.72 104.381 13.58 103.853 12.86C103.325 12.14 102.545 11.78 101.513 11.78ZM102.413 23.12H98.6693V33.74H102.413C103.493 33.74 104.309 33.38 104.861 32.66C105.437 31.916 105.725 30.716 105.725 29.06V27.872C105.725 24.704 104.621 23.12 102.413 23.12ZM133.453 33.992V35H126.757V31.832C126.085 33.056 125.221 33.956 124.165 34.532C123.109 35.084 122.041 35.36 120.961 35.36C119.257 35.36 117.901 34.796 116.893 33.668C115.885 32.516 115.381 30.92 115.381 28.88V19.772C115.381 18.956 115.345 18.476 115.273 18.332C115.201 18.164 114.973 18.056 114.589 18.008L112.609 17.756V16.748H119.521V28.844C119.521 30.5 119.749 31.712 120.205 32.48C120.685 33.224 121.369 33.596 122.257 33.596C122.641 33.596 123.085 33.5 123.589 33.308C124.117 33.092 124.645 32.72 125.173 32.192C125.701 31.64 126.157 30.86 126.541 29.852V19.772C126.541 18.956 126.505 18.464 126.433 18.296C126.361 18.128 126.133 18.032 125.749 18.008L123.049 17.756V16.748H130.681V31.976C130.681 32.792 130.717 33.284 130.789 33.452C130.861 33.596 131.089 33.692 131.473 33.74L133.453 33.992ZM134.873 17.756V16.748H141.569V19.7C143.033 17.492 144.773 16.388 146.789 16.388C147.533 16.388 148.253 16.628 148.949 17.108C149.645 17.564 150.221 18.428 150.677 19.7L147.473 21.428C147.137 20.444 146.741 19.784 146.285 19.448C145.853 19.088 145.385 18.908 144.881 18.908C144.353 18.908 143.837 19.076 143.333 19.412C142.829 19.748 142.313 20.372 141.785 21.284V31.976C141.785 32.792 141.821 33.284 141.893 33.452C141.965 33.596 142.193 33.692 142.577 33.74L145.277 33.992V35H134.873V33.992L136.853 33.74C137.237 33.692 137.465 33.596 137.537 33.452C137.609 33.284 137.645 32.792 137.645 31.976V19.772C137.645 18.956 137.609 18.476 137.537 18.332C137.465 18.164 137.237 18.056 136.853 18.008L134.873 17.756ZM176.414 19.772L172.49 35H169.214L164.894 20.528L160.538 35H157.55L153.662 19.772C153.518 19.22 153.398 18.836 153.302 18.62C153.23 18.38 153.134 18.224 153.014 18.152C152.894 18.08 152.714 18.032 152.474 18.008L150.494 17.756V16.748H160.07V17.756L158.09 18.008C157.706 18.056 157.49 18.164 157.442 18.332C157.394 18.476 157.478 18.956 157.694 19.772L160.502 30.608L164.642 16.748H167.81L172.094 31.22L175.01 19.772C175.226 18.956 175.31 18.476 175.262 18.332C175.214 18.164 174.998 18.056 174.614 18.008L172.634 17.756V16.748H179.582V17.756L177.602 18.008C177.362 18.032 177.182 18.08 177.062 18.152C176.942 18.224 176.834 18.38 176.738 18.62C176.666 18.836 176.558 19.22 176.414 19.772ZM196.842 25.496V26.216C196.842 28.976 196.122 31.196 194.682 32.876C193.266 34.532 191.238 35.36 188.598 35.36C185.958 35.36 183.918 34.532 182.478 32.876C181.062 31.196 180.354 28.976 180.354 26.216V25.496C180.354 22.736 181.062 20.528 182.478 18.872C183.918 17.216 185.958 16.388 188.598 16.388C191.238 16.388 193.266 17.216 194.682 18.872C196.122 20.528 196.842 22.736 196.842 25.496ZM192.414 24.776C192.414 22.208 192.09 20.384 191.442 19.304C190.794 18.2 189.846 17.648 188.598 17.648C187.374 17.648 186.426 18.2 185.754 19.304C185.106 20.384 184.782 22.208 184.782 24.776V26.936C184.782 29.48 185.106 31.316 185.754 32.444C186.426 33.548 187.374 34.1 188.598 34.1C189.846 34.1 190.794 33.548 191.442 32.444C192.09 31.316 192.414 29.48 192.414 26.936V24.776ZM217.057 25.496V26.216C217.057 28.976 216.337 31.196 214.897 32.876C213.481 34.532 211.453 35.36 208.813 35.36C206.173 35.36 204.133 34.532 202.693 32.876C201.277 31.196 200.569 28.976 200.569 26.216V25.496C200.569 22.736 201.277 20.528 202.693 18.872C204.133 17.216 206.173 16.388 208.813 16.388C211.453 16.388 213.481 17.216 214.897 18.872C216.337 20.528 217.057 22.736 217.057 25.496ZM212.629 24.776C212.629 22.208 212.305 20.384 211.657 19.304C211.009 18.2 210.061 17.648 208.813 17.648C207.589 17.648 206.641 18.2 205.969 19.304C205.321 20.384 204.997 22.208 204.997 24.776V26.936C204.997 29.48 205.321 31.316 205.969 32.444C206.641 33.548 207.589 34.1 208.813 34.1C210.061 34.1 211.009 33.548 211.657 32.444C212.305 31.316 212.629 29.48 212.629 26.936V24.776ZM239.396 33.992V35H232.7V32.012C232.028 33.116 231.272 33.956 230.432 34.532C229.616 35.084 228.644 35.36 227.516 35.36C225.5 35.36 223.892 34.568 222.692 32.984C221.516 31.376 220.928 29.132 220.928 26.252V25.532C220.928 22.748 221.612 20.528 222.98 18.872C224.372 17.216 226.268 16.388 228.668 16.388C230.108 16.388 231.38 16.748 232.484 17.468V11.384C232.484 10.568 232.448 10.088 232.376 9.944C232.304 9.776 232.076 9.668 231.692 9.62L229.712 9.368V8.36H236.624V31.976C236.624 32.792 236.66 33.284 236.732 33.452C236.804 33.596 237.032 33.692 237.416 33.74L239.396 33.992ZM225.356 27.332C225.356 29.564 225.632 31.196 226.184 32.228C226.736 33.26 227.492 33.776 228.452 33.776C229.052 33.776 229.676 33.536 230.324 33.056C230.996 32.552 231.716 31.544 232.484 30.032V19.16C231.572 18.248 230.456 17.792 229.136 17.792C227.816 17.792 226.856 18.392 226.256 19.592C225.656 20.768 225.356 22.388 225.356 24.452V27.332Z" fill="#D9B470"/>
<path d="M76.9013 77L72.8213 63.224L68.7893 77H67.2053L63.7013 62.48C63.5893 62.016 63.5013 61.736 63.4373 61.64C63.3733 61.544 63.2133 61.48 62.9573 61.448L61.7332 61.328V60.68H67.3253V61.328L66.1013 61.448C65.8453 61.48 65.7013 61.544 65.6693 61.64C65.6533 61.72 65.7013 62 65.8133 62.48L68.6693 74.48L72.6773 60.68H74.1653L78.2213 74.384L81.1013 62.48C81.2293 62 81.2693 61.72 81.2213 61.64C81.1893 61.544 81.0533 61.48 80.8133 61.448L79.5653 61.328V60.68H83.9333V61.328L82.7093 61.448C82.4693 61.48 82.3173 61.544 82.2533 61.64C82.1893 61.72 82.0933 62 81.9653 62.48L78.4613 77H76.9013ZM93.8921 74.264C93.6041 75.352 93.0601 76.12 92.2601 76.568C91.4761 77.016 90.6041 77.24 89.6441 77.24C87.8681 77.24 86.5401 76.704 85.6601 75.632C84.7801 74.544 84.3401 73.096 84.3401 71.288V70.808C84.3401 69.016 84.7641 67.584 85.6121 66.512C86.4601 65.424 87.6921 64.88 89.3081 64.88C90.1721 64.88 90.9561 65.056 91.6601 65.408C92.3801 65.76 92.9481 66.28 93.3641 66.968C93.7961 67.656 94.0121 68.512 94.0121 69.536C94.0121 70.016 93.9641 70.52 93.8681 71.048H86.5001V71.768C86.5001 73.448 86.7561 74.656 87.2681 75.392C87.7961 76.112 88.6441 76.472 89.8121 76.472C90.5481 76.472 91.1561 76.28 91.6361 75.896C92.1321 75.512 92.4601 74.848 92.6201 73.904L93.8921 74.264ZM89.3081 65.648C88.3641 65.648 87.6601 66.008 87.1961 66.728C86.7321 67.448 86.5001 68.632 86.5001 70.28H91.9001V70.208C91.9321 70 91.9561 69.8 91.9721 69.608C91.9881 69.4 91.9961 69.216 91.9961 69.056C91.9961 67.856 91.7481 66.992 91.2521 66.464C90.7561 65.92 90.1081 65.648 89.3081 65.648ZM101.342 72.152L99.8775 71.792C97.8775 71.28 96.8775 70.128 96.8775 68.336C96.8775 67.744 97.0135 67.184 97.2855 66.656C97.5575 66.128 97.9895 65.704 98.5815 65.384C99.1895 65.048 99.9655 64.88 100.91 64.88C101.966 64.88 102.814 65.056 103.454 65.408C104.094 65.76 104.542 66.216 104.798 66.776C105.054 67.336 105.134 67.944 105.038 68.6L103.166 68.936C103.358 67.896 103.246 67.088 102.83 66.512C102.43 65.936 101.766 65.648 100.838 65.648C100.118 65.648 99.5415 65.832 99.1095 66.2C98.6775 66.552 98.4615 67.072 98.4615 67.76C98.4615 68.272 98.6215 68.728 98.9415 69.128C99.2615 69.512 99.7975 69.8 100.55 69.992L102.062 70.352C103.118 70.608 103.934 71.016 104.51 71.576C105.102 72.136 105.398 72.872 105.398 73.784C105.398 74.808 105.022 75.64 104.27 76.28C103.534 76.92 102.478 77.24 101.102 77.24C100.446 77.24 99.8055 77.144 99.1815 76.952C98.5735 76.744 98.0375 76.424 97.5735 75.992C97.1255 75.544 96.7975 74.968 96.5895 74.264L97.9335 73.784C98.1095 74.792 98.4935 75.496 99.0855 75.896C99.6775 76.296 100.358 76.496 101.126 76.496C101.574 76.496 101.998 76.424 102.398 76.28C102.814 76.136 103.15 75.912 103.406 75.608C103.662 75.288 103.79 74.88 103.79 74.384C103.79 73.872 103.614 73.432 103.262 73.064C102.91 72.696 102.27 72.392 101.342 72.152ZM115.565 74.552C115.325 75.48 114.949 76.16 114.437 76.592C113.925 77.024 113.269 77.24 112.469 77.24C111.701 77.24 111.077 77.072 110.597 76.736C110.117 76.384 109.765 75.928 109.541 75.368C109.317 74.808 109.205 74.224 109.205 73.616V67.064C109.205 66.504 109.181 66.176 109.133 66.08C109.101 65.984 108.949 65.92 108.677 65.888L107.357 65.768V65.12H109.205V61.976L111.173 61.568V65.12H115.085V65.888H111.173V73.808C111.173 74.816 111.309 75.512 111.581 75.896C111.869 76.28 112.245 76.472 112.709 76.472C113.173 76.472 113.525 76.296 113.765 75.944C114.021 75.592 114.205 75.016 114.317 74.216L115.565 74.552ZM130.15 76.376V77H124.486V76.376L125.806 76.232C126.062 76.2 126.214 76.136 126.262 76.04C126.31 75.944 126.334 75.616 126.334 75.056V65.888H120.742V75.056C120.742 75.616 120.766 75.944 120.814 76.04C120.862 76.136 121.014 76.2 121.27 76.232L122.59 76.376V77H116.926V76.376L118.246 76.232C118.502 76.2 118.654 76.136 118.702 76.04C118.75 75.944 118.774 75.616 118.774 75.056V67.064C118.774 66.504 118.75 66.176 118.702 66.08C118.67 65.984 118.518 65.92 118.246 65.888L116.926 65.768V65.12H118.774V64.16C118.774 63.264 118.926 62.424 119.23 61.64C119.55 60.856 120.07 60.224 120.79 59.744C121.526 59.248 122.51 59 123.742 59C124.766 59 125.622 59.176 126.31 59.528C127.014 59.864 127.526 60.328 127.846 60.92C128.166 61.496 128.262 62.144 128.134 62.864L126.262 63.128C126.566 60.888 125.726 59.768 123.742 59.768C123.15 59.768 122.63 59.888 122.182 60.128C121.734 60.352 121.382 60.76 121.126 61.352C120.87 61.928 120.742 62.752 120.742 63.824V65.12H128.302V75.056C128.302 75.616 128.326 75.944 128.374 76.04C128.422 76.136 128.574 76.2 128.83 76.232L130.15 76.376ZM141.916 74.264C141.628 75.352 141.084 76.12 140.284 76.568C139.5 77.016 138.628 77.24 137.668 77.24C135.892 77.24 134.564 76.704 133.684 75.632C132.804 74.544 132.364 73.096 132.364 71.288V70.808C132.364 69.016 132.788 67.584 133.636 66.512C134.484 65.424 135.716 64.88 137.332 64.88C138.196 64.88 138.98 65.056 139.684 65.408C140.404 65.76 140.972 66.28 141.388 66.968C141.82 67.656 142.036 68.512 142.036 69.536C142.036 70.016 141.988 70.52 141.892 71.048H134.524V71.768C134.524 73.448 134.78 74.656 135.292 75.392C135.82 76.112 136.668 76.472 137.836 76.472C138.572 76.472 139.18 76.28 139.66 75.896C140.156 75.512 140.484 74.848 140.644 73.904L141.916 74.264ZM137.332 65.648C136.388 65.648 135.684 66.008 135.22 66.728C134.756 67.448 134.524 68.632 134.524 70.28H139.924V70.208C139.956 70 139.98 69.8 139.996 69.608C140.012 69.4 140.02 69.216 140.02 69.056C140.02 67.856 139.772 66.992 139.276 66.464C138.78 65.92 138.132 65.648 137.332 65.648ZM144.133 59.888V59.24H147.949V75.056C147.949 75.616 147.973 75.944 148.021 76.04C148.069 76.136 148.221 76.2 148.477 76.232L149.797 76.376V77H144.133V76.376L145.453 76.232C145.709 76.2 145.861 76.136 145.909 76.04C145.957 75.944 145.981 75.616 145.981 75.056V61.184C145.981 60.624 145.957 60.296 145.909 60.2C145.861 60.104 145.709 60.04 145.453 60.008L144.133 59.888ZM163.74 76.4V77H160.044V75.104C159.548 75.84 158.996 76.384 158.388 76.736C157.796 77.072 157.132 77.24 156.396 77.24C155.02 77.24 153.948 76.728 153.18 75.704C152.428 74.664 152.052 73.2 152.052 71.312V70.832C152.052 69.024 152.492 67.584 153.372 66.512C154.268 65.424 155.492 64.88 157.044 64.88C158.18 64.88 159.14 65.232 159.924 65.936V61.184C159.924 60.624 159.9 60.296 159.852 60.2C159.804 60.104 159.652 60.04 159.396 60.008L158.076 59.888V59.24H161.892V75.056C161.892 75.616 161.916 75.944 161.964 76.04C162.012 76.136 162.164 76.2 162.42 76.232L163.74 76.4ZM154.212 72.032C154.212 73.536 154.428 74.64 154.86 75.344C155.308 76.048 155.924 76.4 156.708 76.4C157.22 76.4 157.748 76.24 158.292 75.92C158.836 75.6 159.38 74.952 159.924 73.976V67.112C159.22 66.168 158.3 65.696 157.164 65.696C156.14 65.696 155.388 66.088 154.908 66.872C154.444 67.656 154.212 68.736 154.212 70.112V72.032ZM171.004 61.328V60.68H177.532C179.1 60.68 180.276 61.048 181.06 61.784C181.844 62.504 182.236 63.432 182.236 64.568V65.216C182.236 66.048 181.988 66.76 181.492 67.352C180.996 67.944 180.3 68.36 179.404 68.6C180.524 68.792 181.396 69.216 182.02 69.872C182.644 70.528 182.956 71.352 182.956 72.344V72.992C182.956 74.16 182.548 75.12 181.732 75.872C180.932 76.624 179.732 77 178.132 77H171.004V76.376L172.324 76.232C172.58 76.2 172.732 76.136 172.78 76.04C172.828 75.944 172.852 75.616 172.852 75.056V62.624C172.852 62.064 172.828 61.736 172.78 61.64C172.732 61.544 172.58 61.48 172.324 61.448L171.004 61.328ZM177.532 61.448H174.94V68.312H177.532C179.196 68.312 180.028 67.344 180.028 65.408V64.424C180.028 62.44 179.196 61.448 177.532 61.448ZM178.132 69.08H174.94V76.232H178.132C179.876 76.232 180.748 75.2 180.748 73.136V72.152C180.748 71.16 180.524 70.4 180.076 69.872C179.644 69.344 178.996 69.08 178.132 69.08ZM198.063 76.376V77H194.367V75.08C193.807 75.832 193.167 76.384 192.447 76.736C191.743 77.072 191.039 77.24 190.335 77.24C189.199 77.24 188.311 76.88 187.671 76.16C187.047 75.424 186.735 74.392 186.735 73.064V67.064C186.735 66.504 186.711 66.176 186.663 66.08C186.615 65.984 186.463 65.92 186.207 65.888L184.887 65.768V65.12H188.703V73.04C188.703 74.224 188.879 75.064 189.231 75.56C189.599 76.04 190.127 76.28 190.815 76.28C191.327 76.28 191.887 76.12 192.495 75.8C193.119 75.48 193.703 74.864 194.247 73.952V67.064C194.247 66.504 194.223 66.176 194.175 66.08C194.127 65.968 193.975 65.904 193.719 65.888L191.919 65.768V65.12H196.215V75.056C196.215 75.616 196.239 75.944 196.287 76.04C196.335 76.136 196.487 76.2 196.743 76.232L198.063 76.376ZM199.59 65.768V65.12H203.286V67.04C203.846 66.288 204.406 65.744 204.966 65.408C205.542 65.056 206.126 64.88 206.718 64.88C207.23 64.88 207.71 65.032 208.158 65.336C208.606 65.64 208.982 66.128 209.286 66.8L207.726 67.736C207.486 67.16 207.214 66.76 206.91 66.536C206.606 66.312 206.27 66.2 205.902 66.2C205.502 66.2 205.102 66.328 204.702 66.584C204.318 66.84 203.886 67.32 203.406 68.024V75.056C203.406 75.616 203.43 75.952 203.478 76.064C203.526 76.16 203.678 76.216 203.934 76.232L205.734 76.376V77H199.59V76.376L200.91 76.232C201.166 76.2 201.318 76.136 201.366 76.04C201.414 75.944 201.438 75.616 201.438 75.056V67.064C201.438 66.504 201.414 66.176 201.366 66.08C201.318 65.984 201.166 65.92 200.91 65.888L199.59 65.768ZM225.929 66.92L223.241 77H221.681L218.537 67.088L215.393 77H213.905L211.241 66.92C211.129 66.456 211.033 66.176 210.953 66.08C210.889 65.984 210.729 65.92 210.473 65.888L209.249 65.768V65.12H214.697V65.768L213.449 65.888C213.193 65.92 213.049 65.984 213.017 66.08C213.001 66.176 213.057 66.456 213.185 66.92L215.249 74.84L218.297 65.12H219.857L222.953 74.984L225.041 66.92C225.169 66.456 225.217 66.176 225.185 66.08C225.169 65.984 225.033 65.92 224.777 65.888L223.529 65.768V65.12H227.921V65.768L226.697 65.888C226.457 65.92 226.297 65.984 226.217 66.08C226.153 66.176 226.057 66.456 225.929 66.92ZM239.458 70.808V71.288C239.458 73.096 239.002 74.544 238.09 75.632C237.194 76.704 235.914 77.24 234.25 77.24C232.602 77.24 231.322 76.704 230.41 75.632C229.514 74.544 229.066 73.096 229.066 71.288V70.808C229.066 69.016 229.514 67.584 230.41 66.512C231.306 65.424 232.586 64.88 234.25 64.88C235.914 64.88 237.194 65.424 238.09 66.512C239.002 67.584 239.458 69.016 239.458 70.808ZM237.298 70.328C237.298 68.664 237.034 67.472 236.506 66.752C235.994 66.016 235.242 65.648 234.25 65.648C233.274 65.648 232.522 66.016 231.994 66.752C231.482 67.472 231.226 68.664 231.226 70.328V71.768C231.226 73.448 231.482 74.656 231.994 75.392C232.522 76.112 233.274 76.472 234.25 76.472C235.242 76.472 235.994 76.112 236.506 75.392C237.034 74.656 237.298 73.448 237.298 71.768V70.328ZM252.818 70.808V71.288C252.818 73.096 252.362 74.544 251.45 75.632C250.554 76.704 249.274 77.24 247.61 77.24C245.962 77.24 244.682 76.704 243.77 75.632C242.874 74.544 242.426 73.096 242.426 71.288V70.808C242.426 69.016 242.874 67.584 243.77 66.512C244.666 65.424 245.946 64.88 247.61 64.88C249.274 64.88 250.554 65.424 251.45 66.512C252.362 67.584 252.818 69.016 252.818 70.808ZM250.658 70.328C250.658 68.664 250.394 67.472 249.866 66.752C249.354 66.016 248.602 65.648 247.61 65.648C246.634 65.648 245.882 66.016 245.354 66.752C244.842 67.472 244.586 68.664 244.586 70.328V71.768C244.586 73.448 244.842 74.656 245.354 75.392C245.882 76.112 246.634 76.472 247.61 76.472C248.602 76.472 249.354 76.112 249.866 75.392C250.394 74.656 250.658 73.448 250.658 71.768V70.328ZM267.545 76.4V77H263.849V75.104C263.353 75.84 262.801 76.384 262.193 76.736C261.601 77.072 260.937 77.24 260.201 77.24C258.825 77.24 257.753 76.728 256.985 75.704C256.233 74.664 255.857 73.2 255.857 71.312V70.832C255.857 69.024 256.297 67.584 257.177 66.512C258.073 65.424 259.297 64.88 260.849 64.88C261.985 64.88 262.945 65.232 263.729 65.936V61.184C263.729 60.624 263.705 60.296 263.657 60.2C263.609 60.104 263.457 60.04 263.201 60.008L261.881 59.888V59.24H265.697V75.056C265.697 75.616 265.721 75.944 265.769 76.04C265.817 76.136 265.969 76.2 266.225 76.232L267.545 76.4ZM258.017 72.032C258.017 73.536 258.233 74.64 258.665 75.344C259.113 76.048 259.729 76.4 260.513 76.4C261.025 76.4 261.553 76.24 262.097 75.92C262.641 75.6 263.185 74.952 263.729 73.976V67.112C263.025 66.168 262.105 65.696 260.969 65.696C259.945 65.696 259.193 66.088 258.713 66.872C258.249 67.656 258.017 68.736 258.017 70.112V72.032Z" fill="#D9B470"/>
</g>
<defs>
<clipPath id="clip0_249_63">
<rect width="330" height="82" fill="white"/>
</clipPath>
</defs>
</svg>
