<svg width="330" height="82" viewBox="0 0 330 82" fill="none" xmlns="http://www.w3.org/2000/svg">
<g clip-path="url(#clip0_249_59)">
<path d="M78.8904 11.528V10.52H85.8744V11.528L83.8944 11.78C83.5104 11.828 83.2824 11.936 83.2104 12.104C83.1384 12.248 83.1024 12.728 83.1024 13.544V35H81.1224L67.9104 13.652V31.976C67.9104 32.792 67.9464 33.284 68.0184 33.452C68.0904 33.596 68.3184 33.692 68.7024 33.74L70.6824 33.992V35H63.6984V33.992L65.6784 33.74C66.0624 33.692 66.2904 33.596 66.3624 33.452C66.4344 33.284 66.4704 32.792 66.4704 31.976V13.544C66.4704 12.728 66.4344 12.248 66.3624 12.104C66.2904 11.936 66.0624 11.828 65.6784 11.78L63.6984 11.528V10.52H70.9344L81.6624 27.764V13.544C81.6624 12.728 81.6264 12.248 81.5544 12.104C81.4824 11.936 81.2544 11.828 80.8704 11.78L78.8904 11.528ZM104.698 25.496V26.216C104.698 28.976 103.978 31.196 102.538 32.876C101.122 34.532 99.0939 35.36 96.4539 35.36C93.8139 35.36 91.7739 34.532 90.3339 32.876C88.9179 31.196 88.2099 28.976 88.2099 26.216V25.496C88.2099 22.736 88.9179 20.528 90.3339 18.872C91.7739 17.216 93.8139 16.388 96.4539 16.388C99.0939 16.388 101.122 17.216 102.538 18.872C103.978 20.528 104.698 22.736 104.698 25.496ZM100.27 24.776C100.27 22.208 99.9459 20.384 99.2979 19.304C98.6499 18.2 97.7019 17.648 96.4539 17.648C95.2299 17.648 94.2819 18.2 93.6099 19.304C92.9619 20.384 92.6379 22.208 92.6379 24.776V26.936C92.6379 29.48 92.9619 31.316 93.6099 32.444C94.2819 33.548 95.2299 34.1 96.4539 34.1C97.7019 34.1 98.6499 33.548 99.2979 32.444C99.9459 31.316 100.27 29.48 100.27 26.936V24.776ZM107.381 17.756V16.748H114.077V19.7C115.541 17.492 117.281 16.388 119.297 16.388C120.041 16.388 120.761 16.628 121.457 17.108C122.153 17.564 122.729 18.428 123.185 19.7L119.981 21.428C119.645 20.444 119.249 19.784 118.793 19.448C118.361 19.088 117.893 18.908 117.389 18.908C116.861 18.908 116.345 19.076 115.841 19.412C115.337 19.748 114.821 20.372 114.293 21.284V31.976C114.293 32.792 114.329 33.284 114.401 33.452C114.473 33.596 114.701 33.692 115.085 33.74L117.785 33.992V35H107.381V33.992L109.361 33.74C109.745 33.692 109.973 33.596 110.045 33.452C110.117 33.284 110.153 32.792 110.153 31.976V19.772C110.153 18.956 110.117 18.476 110.045 18.332C109.973 18.164 109.745 18.056 109.361 18.008L107.381 17.756ZM136.826 31.256C136.514 32.72 135.914 33.776 135.026 34.424C134.162 35.048 133.106 35.36 131.858 35.36C130.586 35.36 129.542 35.084 128.726 34.532C127.91 33.956 127.31 33.2 126.926 32.264C126.542 31.328 126.35 30.332 126.35 29.276V19.772C126.35 18.956 126.314 18.476 126.242 18.332C126.17 18.164 125.942 18.056 125.558 18.008L123.578 17.756V16.748H126.35V12.572L130.49 11.744V16.748H136.25V18.008H130.49V29.996C130.49 31.532 130.682 32.6 131.066 33.2C131.45 33.776 131.942 34.064 132.542 34.064C133.166 34.064 133.646 33.824 133.982 33.344C134.342 32.864 134.57 31.988 134.666 30.716L136.826 31.256ZM159.165 33.992V35H149.481V33.992L151.461 33.74C151.845 33.692 152.073 33.596 152.145 33.452C152.217 33.284 152.253 32.792 152.253 31.976V22.904C152.253 21.248 152.001 20.048 151.497 19.304C151.017 18.536 150.297 18.152 149.337 18.152C148.929 18.152 148.449 18.26 147.897 18.476C147.369 18.668 146.829 19.028 146.277 19.556C145.749 20.084 145.281 20.864 144.873 21.896V31.976C144.873 32.792 144.909 33.284 144.981 33.452C145.053 33.596 145.281 33.692 145.665 33.74L147.645 33.992V35H137.961V33.992L139.941 33.74C140.325 33.692 140.553 33.596 140.625 33.452C140.697 33.284 140.733 32.792 140.733 31.976V11.384C140.733 10.568 140.697 10.088 140.625 9.944C140.553 9.776 140.325 9.668 139.941 9.62L137.961 9.368V8.36H144.873V19.556C145.569 18.452 146.433 17.648 147.465 17.144C148.521 16.64 149.577 16.388 150.633 16.388C152.409 16.388 153.813 16.952 154.845 18.08C155.877 19.208 156.393 20.804 156.393 22.868V31.976C156.393 32.792 156.429 33.284 156.501 33.452C156.573 33.596 156.801 33.692 157.185 33.74L159.165 33.992ZM169.167 11.528V10.52H180.039C182.559 10.52 184.503 11.084 185.871 12.212C187.239 13.34 187.923 14.852 187.923 16.748V17.576C187.923 19.016 187.527 20.24 186.735 21.248C185.943 22.256 184.803 22.976 183.315 23.408L187.815 31.976C188.103 32.504 188.319 32.888 188.463 33.128C188.607 33.368 188.739 33.524 188.859 33.596C189.003 33.644 189.195 33.692 189.435 33.74L191.055 33.992V35H184.323L178.887 23.84H176.259V31.976C176.259 32.792 176.295 33.284 176.367 33.452C176.439 33.596 176.667 33.692 177.051 33.74L179.031 33.992V35H169.167V33.992L171.147 33.74C171.531 33.692 171.759 33.596 171.831 33.452C171.903 33.284 171.939 32.792 171.939 31.976V13.544C171.939 12.728 171.903 12.248 171.831 12.104C171.759 11.936 171.531 11.828 171.147 11.78L169.167 11.528ZM180.039 11.78H176.259V22.58H180.039C181.095 22.58 181.899 22.256 182.451 21.608C183.027 20.936 183.315 19.712 183.315 17.936V16.388C183.315 14.612 183.027 13.4 182.451 12.752C181.899 12.104 181.095 11.78 180.039 11.78ZM209.428 25.496V26.216C209.428 28.976 208.708 31.196 207.268 32.876C205.852 34.532 203.824 35.36 201.184 35.36C198.544 35.36 196.504 34.532 195.064 32.876C193.648 31.196 192.94 28.976 192.94 26.216V25.496C192.94 22.736 193.648 20.528 195.064 18.872C196.504 17.216 198.544 16.388 201.184 16.388C203.824 16.388 205.852 17.216 207.268 18.872C208.708 20.528 209.428 22.736 209.428 25.496ZM205 24.776C205 22.208 204.676 20.384 204.028 19.304C203.38 18.2 202.432 17.648 201.184 17.648C199.96 17.648 199.012 18.2 198.34 19.304C197.692 20.384 197.368 22.208 197.368 24.776V26.936C197.368 29.48 197.692 31.316 198.34 32.444C199.012 33.548 199.96 34.1 201.184 34.1C202.432 34.1 203.38 33.548 204.028 32.444C204.676 31.316 205 29.48 205 26.936V24.776ZM221.039 17.648C219.887 17.648 219.023 18.2 218.447 19.304C217.895 20.384 217.619 22.208 217.619 24.776V26.936C217.619 29.48 217.943 31.316 218.591 32.444C219.239 33.548 220.295 34.1 221.759 34.1C222.839 34.1 223.715 33.8 224.387 33.2C225.083 32.576 225.479 31.532 225.575 30.068L227.879 30.716C227.447 32.396 226.655 33.596 225.503 34.316C224.375 35.012 223.043 35.36 221.507 35.36C218.747 35.36 216.671 34.532 215.279 32.876C213.887 31.196 213.191 28.976 213.191 26.216V25.496C213.191 22.736 213.863 20.528 215.207 18.872C216.551 17.216 218.495 16.388 221.039 16.388C222.719 16.388 224.087 16.724 225.143 17.396C226.223 18.044 226.979 18.908 227.411 19.988C227.867 21.044 227.987 22.184 227.771 23.408L223.811 23.984C224.075 21.968 223.967 20.408 223.487 19.304C223.007 18.2 222.191 17.648 221.039 17.648ZM229.965 9.368V8.36H236.877V25.82L243.213 19.772C244.053 18.98 244.497 18.5 244.545 18.332C244.617 18.164 244.449 18.056 244.041 18.008L242.061 17.756V16.748H249.441V17.756L247.461 18.008C247.245 18.032 247.065 18.08 246.921 18.152C246.777 18.224 246.573 18.38 246.309 18.62C246.045 18.836 245.625 19.22 245.049 19.772L241.593 23.084L246.705 31.976C247.041 32.528 247.293 32.924 247.461 33.164C247.629 33.38 247.785 33.524 247.929 33.596C248.097 33.644 248.301 33.692 248.541 33.74L250.521 33.992V35H243.645L238.641 25.892L236.877 27.584V31.976C236.877 32.792 236.913 33.284 236.985 33.452C237.057 33.596 237.285 33.692 237.669 33.74L239.649 33.992V35H229.965V33.992L231.945 33.74C232.329 33.692 232.557 33.596 232.629 33.452C232.701 33.284 232.737 32.792 232.737 31.976V11.384C232.737 10.568 232.701 10.088 232.629 9.944C232.557 9.776 232.329 9.668 231.945 9.62L229.965 9.368ZM259.589 28.196L257.105 27.62C255.497 27.236 254.297 26.552 253.505 25.568C252.737 24.56 252.353 23.372 252.353 22.004C252.353 20.996 252.569 20.072 253.001 19.232C253.457 18.368 254.165 17.684 255.125 17.18C256.085 16.652 257.333 16.388 258.869 16.388C260.525 16.388 261.869 16.652 262.901 17.18C263.933 17.708 264.665 18.404 265.097 19.268C265.529 20.132 265.661 21.056 265.493 22.04L261.533 22.76C261.869 21.128 261.773 19.868 261.245 18.98C260.741 18.092 259.889 17.648 258.689 17.648C257.849 17.648 257.153 17.9 256.601 18.404C256.049 18.884 255.773 19.58 255.773 20.492C255.773 21.332 256.013 22.076 256.493 22.724C256.973 23.348 257.681 23.768 258.617 23.984L261.101 24.56C262.877 24.968 264.161 25.616 264.953 26.504C265.745 27.368 266.141 28.448 266.141 29.744C266.141 31.352 265.541 32.696 264.341 33.776C263.165 34.832 261.401 35.36 259.049 35.36C258.233 35.36 257.333 35.24 256.349 35C255.389 34.736 254.501 34.268 253.685 33.596C252.893 32.924 252.317 31.964 251.957 30.716L254.297 29.78C254.465 31.364 255.005 32.48 255.917 33.128C256.853 33.776 257.897 34.1 259.049 34.1C260.129 34.1 261.005 33.86 261.677 33.38C262.373 32.876 262.721 32.156 262.721 31.22C262.721 30.572 262.493 29.984 262.037 29.456C261.605 28.904 260.789 28.484 259.589 28.196Z" fill="#D9B470"/>
<path d="M14.5093 61.328V60.68H19.0933V61.328L17.7733 61.448C17.5173 61.48 17.3653 61.552 17.3173 61.664C17.2693 61.76 17.2453 62.08 17.2453 62.624V77H16.0693L7.33331 62.264V75.056C7.33331 75.6 7.35731 75.928 7.40531 76.04C7.45331 76.136 7.60531 76.2 7.86131 76.232L9.18131 76.376V77H4.59731V76.376L5.91731 76.232C6.17331 76.2 6.32531 76.136 6.37331 76.04C6.42131 75.928 6.44531 75.6 6.44531 75.056V62.624C6.44531 62.08 6.42131 61.76 6.37331 61.664C6.32531 61.552 6.17331 61.48 5.91731 61.448L4.59731 61.328V60.68H8.74931L16.3573 73.544V62.624C16.3573 62.08 16.3333 61.76 16.2853 61.664C16.2373 61.552 16.0853 61.48 15.8293 61.448L14.5093 61.328ZM31.4972 70.808V71.288C31.4972 73.096 31.0412 74.544 30.1292 75.632C29.2332 76.704 27.9532 77.24 26.2892 77.24C24.6412 77.24 23.3612 76.704 22.4492 75.632C21.5532 74.544 21.1052 73.096 21.1052 71.288V70.808C21.1052 69.016 21.5532 67.584 22.4492 66.512C23.3452 65.424 24.6252 64.88 26.2892 64.88C27.9532 64.88 29.2332 65.424 30.1292 66.512C31.0412 67.584 31.4972 69.016 31.4972 70.808ZM29.3372 70.328C29.3372 68.664 29.0732 67.472 28.5452 66.752C28.0332 66.016 27.2812 65.648 26.2892 65.648C25.3132 65.648 24.5612 66.016 24.0332 66.752C23.5212 67.472 23.2652 68.664 23.2652 70.328V71.768C23.2652 73.448 23.5212 74.656 24.0332 75.392C24.5612 76.112 25.3132 76.472 26.2892 76.472C27.2812 76.472 28.0332 76.112 28.5452 75.392C29.0732 74.656 29.3372 73.448 29.3372 71.768V70.328ZM33.8166 65.768V65.12H37.5126V67.04C38.0726 66.288 38.6326 65.744 39.1926 65.408C39.7686 65.056 40.3526 64.88 40.9446 64.88C41.4566 64.88 41.9366 65.032 42.3846 65.336C42.8326 65.64 43.2086 66.128 43.5126 66.8L41.9526 67.736C41.7126 67.16 41.4406 66.76 41.1366 66.536C40.8326 66.312 40.4966 66.2 40.1286 66.2C39.7286 66.2 39.3286 66.328 38.9286 66.584C38.5446 66.84 38.1126 67.32 37.6326 68.024V75.056C37.6326 75.616 37.6566 75.952 37.7046 76.064C37.7526 76.16 37.9046 76.216 38.1606 76.232L39.9606 76.376V77H33.8166V76.376L35.1366 76.232C35.3926 76.2 35.5446 76.136 35.5926 76.04C35.6406 75.944 35.6646 75.616 35.6646 75.056V67.064C35.6646 66.504 35.6406 66.176 35.5926 66.08C35.5446 65.984 35.3926 65.92 35.1366 65.888L33.8166 65.768ZM52.2834 74.552C52.0434 75.48 51.6674 76.16 51.1554 76.592C50.6434 77.024 49.9874 77.24 49.1874 77.24C48.4194 77.24 47.7954 77.072 47.3154 76.736C46.8354 76.384 46.4834 75.928 46.2594 75.368C46.0354 74.808 45.9234 74.224 45.9234 73.616V67.064C45.9234 66.504 45.8994 66.176 45.8514 66.08C45.8194 65.984 45.6674 65.92 45.3954 65.888L44.0754 65.768V65.12H45.9234V61.976L47.8914 61.568V65.12H51.8034V65.888H47.8914V73.808C47.8914 74.816 48.0274 75.512 48.2994 75.896C48.5874 76.28 48.9634 76.472 49.4274 76.472C49.8914 76.472 50.2434 76.296 50.4834 75.944C50.7394 75.592 50.9234 75.016 51.0354 74.216L52.2834 74.552ZM66.8927 76.376V77H61.2287V76.376L62.5487 76.232C62.8047 76.2 62.9567 76.136 63.0047 76.04C63.0527 75.944 63.0767 75.616 63.0767 75.056V69.08C63.0767 67.896 62.8847 67.064 62.5007 66.584C62.1167 66.088 61.5727 65.84 60.8687 65.84C60.3247 65.84 59.7327 66 59.0927 66.32C58.4527 66.64 57.8527 67.272 57.2927 68.216V75.056C57.2927 75.616 57.3167 75.944 57.3647 76.04C57.4127 76.136 57.5647 76.2 57.8207 76.232L59.1407 76.376V77H53.4767V76.376L54.7967 76.232C55.0527 76.2 55.2047 76.136 55.2527 76.04C55.3007 75.944 55.3247 75.616 55.3247 75.056V61.184C55.3247 60.624 55.3007 60.296 55.2527 60.2C55.2047 60.104 55.0527 60.04 54.7967 60.008L53.4767 59.888V59.24H57.2927V66.944C57.8527 66.224 58.4927 65.704 59.2127 65.384C59.9327 65.048 60.6447 64.88 61.3487 64.88C62.5327 64.88 63.4447 65.248 64.0847 65.984C64.7247 66.704 65.0447 67.728 65.0447 69.056V75.056C65.0447 75.616 65.0687 75.944 65.1167 76.04C65.1647 76.136 65.3167 76.2 65.5727 76.232L66.8927 76.376ZM74.0426 61.328V60.68H80.7146C82.2826 60.68 83.4826 61.056 84.3146 61.808C85.1626 62.544 85.5866 63.528 85.5866 64.76V65.504C85.5866 66.48 85.3146 67.312 84.7706 68C84.2426 68.672 83.4826 69.136 82.4906 69.392L85.5626 75.056C85.7706 75.44 85.9226 75.712 86.0186 75.872C86.1146 76.016 86.2026 76.112 86.2826 76.16C86.3786 76.192 86.5066 76.216 86.6666 76.232L87.7466 76.376V77H84.1226L80.3306 69.608H77.9786V75.056C77.9786 75.616 78.0026 75.944 78.0506 76.04C78.0986 76.136 78.2506 76.2 78.5066 76.232L79.8266 76.376V77H74.0426V76.376L75.3626 76.232C75.6186 76.2 75.7706 76.136 75.8186 76.04C75.8666 75.944 75.8906 75.616 75.8906 75.056V62.624C75.8906 62.064 75.8666 61.736 75.8186 61.64C75.7706 61.544 75.6186 61.48 75.3626 61.448L74.0426 61.328ZM80.7146 61.448H77.9786V68.84H80.7146C81.5466 68.84 82.1946 68.576 82.6586 68.048C83.1386 67.504 83.3786 66.688 83.3786 65.6V64.664C83.3786 63.576 83.1386 62.768 82.6586 62.24C82.1946 61.712 81.5466 61.448 80.7146 61.448ZM99.6769 70.808V71.288C99.6769 73.096 99.2209 74.544 98.3089 75.632C97.4129 76.704 96.1329 77.24 94.4689 77.24C92.8209 77.24 91.5409 76.704 90.6289 75.632C89.7329 74.544 89.2849 73.096 89.2849 71.288V70.808C89.2849 69.016 89.7329 67.584 90.6289 66.512C91.5249 65.424 92.8049 64.88 94.4689 64.88C96.1329 64.88 97.4129 65.424 98.3089 66.512C99.2209 67.584 99.6769 69.016 99.6769 70.808ZM97.5169 70.328C97.5169 68.664 97.2529 67.472 96.7249 66.752C96.2129 66.016 95.4609 65.648 94.4689 65.648C93.4929 65.648 92.7409 66.016 92.2129 66.752C91.7009 67.472 91.4449 68.664 91.4449 70.328V71.768C91.4449 73.448 91.7009 74.656 92.2129 75.392C92.7409 76.112 93.4929 76.472 94.4689 76.472C95.4609 76.472 96.2129 76.112 96.7249 75.392C97.2529 74.656 97.5169 73.448 97.5169 71.768V70.328ZM107.612 65.648C106.732 65.648 106.044 66.016 105.548 66.752C105.068 67.472 104.828 68.664 104.828 70.328V71.768C104.828 73.448 105.068 74.656 105.548 75.392C106.044 76.112 106.844 76.472 107.948 76.472C108.7 76.472 109.308 76.28 109.772 75.896C110.236 75.512 110.548 74.848 110.708 73.904L111.98 74.264C111.692 75.352 111.164 76.12 110.396 76.568C109.628 77.016 108.772 77.24 107.828 77.24C106.1 77.24 104.804 76.704 103.94 75.632C103.092 74.544 102.668 73.096 102.668 71.288V70.808C102.668 69.016 103.092 67.584 103.94 66.512C104.788 65.424 106.012 64.88 107.612 64.88C108.636 64.88 109.484 65.08 110.156 65.48C110.844 65.88 111.332 66.424 111.62 67.112C111.908 67.784 111.988 68.528 111.86 69.344L109.964 69.632C110.14 68.352 110.02 67.368 109.604 66.68C109.204 65.992 108.54 65.648 107.612 65.648ZM113.875 59.888V59.24H117.691V71.528L122.227 66.92C122.691 66.456 122.939 66.176 122.971 66.08C123.003 65.984 122.883 65.92 122.611 65.888L121.387 65.768V65.12H126.019V65.768L124.795 65.888C124.651 65.904 124.531 65.936 124.435 65.984C124.339 66.016 124.211 66.104 124.051 66.248C123.907 66.376 123.675 66.6 123.355 66.92L120.715 69.584L124.243 75.2C124.451 75.52 124.603 75.752 124.699 75.896C124.811 76.024 124.915 76.112 125.011 76.16C125.107 76.192 125.235 76.216 125.395 76.232L126.643 76.376V77H123.019L119.371 70.952L117.691 72.656V75.056C117.691 75.616 117.715 75.944 117.763 76.04C117.811 76.136 117.963 76.2 118.219 76.232L119.539 76.376V77H113.875V76.376L115.195 76.232C115.451 76.2 115.603 76.136 115.651 76.04C115.699 75.944 115.723 75.616 115.723 75.056V61.184C115.723 60.624 115.699 60.296 115.651 60.2C115.603 60.104 115.451 60.04 115.195 60.008L113.875 59.888ZM132.584 72.152L131.12 71.792C129.12 71.28 128.12 70.128 128.12 68.336C128.12 67.744 128.256 67.184 128.528 66.656C128.8 66.128 129.232 65.704 129.824 65.384C130.432 65.048 131.208 64.88 132.152 64.88C133.208 64.88 134.056 65.056 134.696 65.408C135.336 65.76 135.784 66.216 136.04 66.776C136.296 67.336 136.376 67.944 136.28 68.6L134.408 68.936C134.6 67.896 134.488 67.088 134.072 66.512C133.672 65.936 133.008 65.648 132.08 65.648C131.36 65.648 130.784 65.832 130.352 66.2C129.92 66.552 129.704 67.072 129.704 67.76C129.704 68.272 129.864 68.728 130.184 69.128C130.504 69.512 131.04 69.8 131.792 69.992L133.304 70.352C134.36 70.608 135.176 71.016 135.752 71.576C136.344 72.136 136.64 72.872 136.64 73.784C136.64 74.808 136.264 75.64 135.512 76.28C134.776 76.92 133.72 77.24 132.344 77.24C131.688 77.24 131.048 77.144 130.424 76.952C129.816 76.744 129.28 76.424 128.816 75.992C128.368 75.544 128.04 74.968 127.832 74.264L129.176 73.784C129.352 74.792 129.736 75.496 130.328 75.896C130.92 76.296 131.6 76.496 132.368 76.496C132.816 76.496 133.24 76.424 133.64 76.28C134.056 76.136 134.392 75.912 134.648 75.608C134.904 75.288 135.032 74.88 135.032 74.384C135.032 73.872 134.856 73.432 134.504 73.064C134.152 72.696 133.512 72.392 132.584 72.152ZM149.964 76.472C151.036 76.472 151.9 76.208 152.556 75.68C153.228 75.152 153.564 74.376 153.564 73.352C153.564 72.536 153.316 71.856 152.82 71.312C152.324 70.752 151.46 70.304 150.228 69.968L148.572 69.488C147.356 69.152 146.428 68.584 145.788 67.784C145.148 66.984 144.828 66.008 144.828 64.856C144.828 64.088 145.004 63.368 145.356 62.696C145.724 62.024 146.276 61.48 147.012 61.064C147.764 60.648 148.716 60.44 149.868 60.44C151.148 60.44 152.18 60.68 152.964 61.16C153.748 61.624 154.292 62.232 154.596 62.984C154.9 63.736 154.972 64.544 154.812 65.408L152.796 65.84C153.004 64.352 152.852 63.208 152.34 62.408C151.844 61.608 150.98 61.208 149.748 61.208C148.772 61.208 148.004 61.472 147.444 62C146.884 62.512 146.604 63.264 146.604 64.256C146.604 65.04 146.828 65.712 147.276 66.272C147.724 66.816 148.516 67.248 149.652 67.568L151.308 68.048C153.98 68.784 155.316 70.344 155.316 72.728C155.316 73.576 155.116 74.344 154.716 75.032C154.332 75.704 153.74 76.24 152.94 76.64C152.156 77.04 151.164 77.24 149.964 77.24C149.132 77.24 148.332 77.112 147.564 76.856C146.812 76.6 146.164 76.16 145.62 75.536C145.092 74.912 144.74 74.048 144.564 72.944L146.004 72.464C146.084 73.52 146.316 74.336 146.7 74.912C147.084 75.488 147.564 75.896 148.14 76.136C148.716 76.36 149.324 76.472 149.964 76.472ZM170.721 76.376V77H165.057V76.376L166.377 76.232C166.633 76.2 166.785 76.136 166.833 76.04C166.881 75.944 166.905 75.616 166.905 75.056V69.08C166.905 67.896 166.713 67.064 166.329 66.584C165.945 66.088 165.401 65.84 164.697 65.84C164.153 65.84 163.561 66 162.921 66.32C162.281 66.64 161.681 67.272 161.121 68.216V75.056C161.121 75.616 161.145 75.944 161.193 76.04C161.241 76.136 161.393 76.2 161.649 76.232L162.969 76.376V77H157.305V76.376L158.625 76.232C158.881 76.2 159.033 76.136 159.081 76.04C159.129 75.944 159.153 75.616 159.153 75.056V61.184C159.153 60.624 159.129 60.296 159.081 60.2C159.033 60.104 158.881 60.04 158.625 60.008L157.305 59.888V59.24H161.121V66.944C161.681 66.224 162.321 65.704 163.041 65.384C163.761 65.048 164.473 64.88 165.177 64.88C166.361 64.88 167.273 65.248 167.913 65.984C168.553 66.704 168.873 67.728 168.873 69.056V75.056C168.873 75.616 168.897 75.944 168.945 76.04C168.993 76.136 169.145 76.2 169.401 76.232L170.721 76.376ZM183.161 70.808V71.288C183.161 73.096 182.705 74.544 181.793 75.632C180.897 76.704 179.617 77.24 177.953 77.24C176.305 77.24 175.025 76.704 174.113 75.632C173.217 74.544 172.769 73.096 172.769 71.288V70.808C172.769 69.016 173.217 67.584 174.113 66.512C175.009 65.424 176.289 64.88 177.953 64.88C179.617 64.88 180.897 65.424 181.793 66.512C182.705 67.584 183.161 69.016 183.161 70.808ZM181.001 70.328C181.001 68.664 180.737 67.472 180.209 66.752C179.697 66.016 178.945 65.648 177.953 65.648C176.977 65.648 176.225 66.016 175.697 66.752C175.185 67.472 174.929 68.664 174.929 70.328V71.768C174.929 73.448 175.185 74.656 175.697 75.392C176.225 76.112 176.977 76.472 177.953 76.472C178.945 76.472 179.697 76.112 180.209 75.392C180.737 74.656 181.001 73.448 181.001 71.768V70.328ZM185.313 65.744V65.12H189.009V67.04C189.489 66.288 190.025 65.744 190.617 65.408C191.225 65.056 191.897 64.88 192.633 64.88C194.009 64.88 195.073 65.4 195.825 66.44C196.593 67.48 196.977 68.936 196.977 70.808V71.288C196.977 73.112 196.537 74.56 195.657 75.632C194.777 76.704 193.553 77.24 191.985 77.24C190.865 77.24 189.913 76.896 189.129 76.208V80.168C189.129 80.712 189.153 81.032 189.201 81.128C189.249 81.24 189.401 81.312 189.657 81.344L191.457 81.464V82.112H185.313V81.464L186.633 81.344C186.889 81.312 187.041 81.24 187.089 81.128C187.137 81.032 187.161 80.712 187.161 80.168V67.064C187.161 66.504 187.137 66.176 187.089 66.08C187.041 65.984 186.889 65.92 186.633 65.888L185.313 65.744ZM192.321 65.744C191.825 65.744 191.305 65.904 190.761 66.224C190.233 66.544 189.689 67.192 189.129 68.168V75.032C189.817 75.976 190.729 76.448 191.865 76.448C192.905 76.448 193.657 76.056 194.121 75.272C194.585 74.472 194.817 73.384 194.817 72.008V70.088C194.817 68.584 194.601 67.488 194.169 66.8C193.737 66.096 193.121 65.744 192.321 65.744ZM199.235 65.744V65.12H202.931V67.04C203.411 66.288 203.947 65.744 204.539 65.408C205.147 65.056 205.819 64.88 206.555 64.88C207.931 64.88 208.995 65.4 209.747 66.44C210.515 67.48 210.898 68.936 210.898 70.808V71.288C210.898 73.112 210.459 74.56 209.579 75.632C208.699 76.704 207.475 77.24 205.907 77.24C204.787 77.24 203.835 76.896 203.051 76.208V80.168C203.051 80.712 203.075 81.032 203.123 81.128C203.171 81.24 203.323 81.312 203.579 81.344L205.379 81.464V82.112H199.235V81.464L200.555 81.344C200.811 81.312 200.963 81.24 201.011 81.128C201.059 81.032 201.083 80.712 201.083 80.168V67.064C201.083 66.504 201.059 66.176 201.011 66.08C200.963 65.984 200.811 65.92 200.555 65.888L199.235 65.744ZM206.243 65.744C205.747 65.744 205.227 65.904 204.683 66.224C204.155 66.544 203.611 67.192 203.051 68.168V75.032C203.739 75.976 204.651 76.448 205.787 76.448C206.827 76.448 207.579 76.056 208.043 75.272C208.507 74.472 208.739 73.384 208.739 72.008V70.088C208.739 68.584 208.523 67.488 208.091 66.8C207.659 66.096 207.043 65.744 206.243 65.744ZM216.132 62.432C215.748 62.432 215.428 62.312 215.172 62.072C214.932 61.816 214.812 61.488 214.812 61.088C214.812 60.704 214.932 60.392 215.172 60.152C215.428 59.912 215.748 59.792 216.132 59.792C216.516 59.792 216.828 59.912 217.068 60.152C217.324 60.392 217.452 60.704 217.452 61.088C217.452 61.488 217.324 61.816 217.068 62.072C216.828 62.312 216.516 62.432 216.132 62.432ZM213.324 65.768V65.12H217.14V75.056C217.14 75.616 217.164 75.944 217.212 76.04C217.26 76.136 217.412 76.2 217.668 76.232L218.988 76.376V77H213.324V76.376L214.644 76.232C214.9 76.2 215.052 76.136 215.1 76.04C215.148 75.944 215.172 75.616 215.172 75.056V67.064C215.172 66.504 215.148 66.176 215.1 66.08C215.052 65.984 214.9 65.92 214.644 65.888L213.324 65.768ZM233.912 76.376V77H228.248V76.376L229.568 76.232C229.824 76.2 229.976 76.136 230.024 76.04C230.072 75.944 230.096 75.616 230.096 75.056V69.08C230.096 67.896 229.904 67.064 229.52 66.584C229.136 66.088 228.584 65.84 227.864 65.84C227.336 65.84 226.752 66 226.112 66.32C225.472 66.64 224.872 67.264 224.312 68.192V75.056C224.312 75.616 224.336 75.944 224.384 76.04C224.432 76.136 224.584 76.2 224.84 76.232L226.16 76.376V77H220.496V76.376L221.816 76.232C222.072 76.2 222.224 76.136 222.272 76.04C222.32 75.944 222.344 75.616 222.344 75.056V67.064C222.344 66.504 222.32 66.176 222.272 66.08C222.224 65.984 222.072 65.92 221.816 65.888L220.496 65.768V65.12H224.192V67.064C224.768 66.296 225.416 65.744 226.136 65.408C226.872 65.056 227.608 64.88 228.344 64.88C229.528 64.88 230.44 65.248 231.08 65.984C231.736 66.704 232.064 67.728 232.064 69.056V75.056C232.064 75.616 232.088 75.944 232.136 76.04C232.184 76.136 232.336 76.2 232.592 76.232L233.912 76.376ZM246.493 78.392C246.493 79.672 246.021 80.648 245.077 81.32C244.149 82.008 242.853 82.352 241.189 82.352C239.365 82.352 238.029 82.032 237.181 81.392C236.333 80.768 235.893 79.976 235.861 79.016L237.637 78.656C237.573 79.536 237.805 80.24 238.333 80.768C238.877 81.312 239.829 81.584 241.189 81.584C242.405 81.584 243.381 81.36 244.117 80.912C244.869 80.464 245.245 79.808 245.245 78.944C245.245 78.304 245.029 77.824 244.597 77.504C244.165 77.184 243.453 77.024 242.461 77.024H239.605C238.533 77.024 237.781 76.8 237.349 76.352C236.917 75.888 236.701 75.376 236.701 74.816C236.701 74.352 236.813 73.92 237.037 73.52C237.277 73.104 237.653 72.696 238.165 72.296C237.525 71.992 237.005 71.552 236.605 70.976C236.205 70.384 236.005 69.672 236.005 68.84C236.005 67.96 236.205 67.232 236.605 66.656C237.021 66.064 237.565 65.624 238.237 65.336C238.925 65.032 239.685 64.88 240.517 64.88H240.925C241.805 64.88 242.589 65.04 243.277 65.36L246.757 64.16L247.021 65.96H244.213C244.581 66.28 244.869 66.68 245.077 67.16C245.301 67.64 245.413 68.2 245.413 68.84C245.413 69.688 245.205 70.408 244.789 71C244.389 71.592 243.853 72.04 243.181 72.344C242.509 72.632 241.757 72.776 240.925 72.776H240.517C240.245 72.776 239.981 72.76 239.725 72.728C239.469 72.696 239.221 72.648 238.981 72.584C238.629 72.824 238.373 73.072 238.213 73.328C238.069 73.584 237.997 73.848 237.997 74.12C237.997 74.44 238.109 74.696 238.333 74.888C238.573 75.08 238.949 75.176 239.461 75.176H242.581C243.845 75.176 244.813 75.448 245.485 75.992C246.157 76.536 246.493 77.336 246.493 78.392ZM240.925 72.008C241.357 72.008 241.749 71.912 242.101 71.72C242.469 71.528 242.765 71.208 242.989 70.76C243.213 70.296 243.325 69.656 243.325 68.84C243.325 68.008 243.213 67.368 242.989 66.92C242.765 66.456 242.469 66.128 242.101 65.936C241.749 65.744 241.357 65.648 240.925 65.648H240.517C240.085 65.648 239.685 65.744 239.317 65.936C238.949 66.128 238.653 66.456 238.429 66.92C238.205 67.368 238.093 68.008 238.093 68.84C238.093 69.656 238.205 70.296 238.429 70.76C238.653 71.208 238.949 71.528 239.317 71.72C239.685 71.912 240.085 72.008 240.517 72.008H240.925ZM260.883 77.24C258.851 77.24 257.299 76.56 256.227 75.2C255.171 73.84 254.643 72.016 254.643 69.728V67.928C254.643 66.424 254.867 65.112 255.315 63.992C255.779 62.872 256.459 62 257.355 61.376C258.251 60.752 259.347 60.44 260.643 60.44C261.843 60.44 262.835 60.68 263.619 61.16C264.403 61.624 264.971 62.24 265.323 63.008C265.675 63.76 265.787 64.584 265.659 65.48L263.595 65.984C263.771 64.448 263.595 63.272 263.067 62.456C262.539 61.624 261.731 61.208 260.643 61.208C259.427 61.208 258.499 61.64 257.859 62.504C257.235 63.368 256.923 64.776 256.923 66.728V70.928C256.923 72.896 257.259 74.312 257.931 75.176C258.603 76.04 259.603 76.472 260.931 76.472C261.459 76.472 261.963 76.384 262.443 76.208C262.923 76.016 263.331 75.696 263.667 75.248C264.003 74.8 264.211 74.176 264.291 73.376L265.779 73.76C265.427 75.04 264.803 75.944 263.907 76.472C263.027 76.984 262.019 77.24 260.883 77.24ZM277.9 74.264C277.612 75.352 277.068 76.12 276.268 76.568C275.484 77.016 274.612 77.24 273.652 77.24C271.876 77.24 270.548 76.704 269.668 75.632C268.788 74.544 268.348 73.096 268.348 71.288V70.808C268.348 69.016 268.772 67.584 269.62 66.512C270.468 65.424 271.7 64.88 273.316 64.88C274.18 64.88 274.964 65.056 275.668 65.408C276.388 65.76 276.956 66.28 277.372 66.968C277.804 67.656 278.02 68.512 278.02 69.536C278.02 70.016 277.972 70.52 277.876 71.048H270.508V71.768C270.508 73.448 270.764 74.656 271.276 75.392C271.804 76.112 272.652 76.472 273.82 76.472C274.556 76.472 275.164 76.28 275.644 75.896C276.14 75.512 276.468 74.848 276.628 73.904L277.9 74.264ZM273.316 65.648C272.372 65.648 271.668 66.008 271.204 66.728C270.74 67.448 270.508 68.632 270.508 70.28H275.908V70.208C275.94 70 275.964 69.8 275.98 69.608C275.996 69.4 276.004 69.216 276.004 69.056C276.004 67.856 275.756 66.992 275.26 66.464C274.764 65.92 274.116 65.648 273.316 65.648ZM293.701 76.376V77H288.037V76.376L289.357 76.232C289.613 76.2 289.765 76.136 289.813 76.04C289.861 75.944 289.885 75.616 289.885 75.056V69.08C289.885 67.896 289.693 67.064 289.309 66.584C288.925 66.088 288.373 65.84 287.653 65.84C287.125 65.84 286.541 66 285.901 66.32C285.261 66.64 284.661 67.264 284.101 68.192V75.056C284.101 75.616 284.125 75.944 284.173 76.04C284.221 76.136 284.373 76.2 284.629 76.232L285.949 76.376V77H280.285V76.376L281.605 76.232C281.861 76.2 282.013 76.136 282.061 76.04C282.109 75.944 282.133 75.616 282.133 75.056V67.064C282.133 66.504 282.109 66.176 282.061 66.08C282.013 65.984 281.861 65.92 281.605 65.888L280.285 65.768V65.12H283.981V67.064C284.557 66.296 285.205 65.744 285.925 65.408C286.661 65.056 287.397 64.88 288.133 64.88C289.317 64.88 290.229 65.248 290.869 65.984C291.525 66.704 291.853 67.728 291.853 69.056V75.056C291.853 75.616 291.877 75.944 291.925 76.04C291.973 76.136 292.125 76.2 292.381 76.232L293.701 76.376ZM303.018 74.552C302.778 75.48 302.402 76.16 301.89 76.592C301.378 77.024 300.722 77.24 299.922 77.24C299.154 77.24 298.53 77.072 298.05 76.736C297.57 76.384 297.218 75.928 296.994 75.368C296.77 74.808 296.658 74.224 296.658 73.616V67.064C296.658 66.504 296.634 66.176 296.586 66.08C296.554 65.984 296.402 65.92 296.13 65.888L294.81 65.768V65.12H296.658V61.976L298.626 61.568V65.12H302.538V65.888H298.626V73.808C298.626 74.816 298.762 75.512 299.034 75.896C299.322 76.28 299.698 76.472 300.162 76.472C300.626 76.472 300.978 76.296 301.218 75.944C301.474 75.592 301.658 75.016 301.77 74.216L303.018 74.552ZM304.379 65.768V65.12H308.075V67.04C308.635 66.288 309.195 65.744 309.755 65.408C310.331 65.056 310.915 64.88 311.507 64.88C312.019 64.88 312.499 65.032 312.947 65.336C313.395 65.64 313.771 66.128 314.075 66.8L312.515 67.736C312.275 67.16 312.003 66.76 311.699 66.536C311.395 66.312 311.059 66.2 310.691 66.2C310.291 66.2 309.891 66.328 309.491 66.584C309.107 66.84 308.675 67.32 308.195 68.024V75.056C308.195 75.616 308.219 75.952 308.267 76.064C308.315 76.16 308.467 76.216 308.723 76.232L310.523 76.376V77H304.379V76.376L305.699 76.232C305.955 76.2 306.107 76.136 306.155 76.04C306.203 75.944 306.227 75.616 306.227 75.056V67.064C306.227 66.504 306.203 66.176 306.155 66.08C306.107 65.984 305.955 65.92 305.699 65.888L304.379 65.768ZM325.009 74.264C324.721 75.352 324.177 76.12 323.377 76.568C322.593 77.016 321.721 77.24 320.761 77.24C318.985 77.24 317.657 76.704 316.777 75.632C315.897 74.544 315.457 73.096 315.457 71.288V70.808C315.457 69.016 315.881 67.584 316.729 66.512C317.577 65.424 318.809 64.88 320.425 64.88C321.289 64.88 322.073 65.056 322.777 65.408C323.497 65.76 324.065 66.28 324.481 66.968C324.913 67.656 325.129 68.512 325.129 69.536C325.129 70.016 325.081 70.52 324.985 71.048H317.617V71.768C317.617 73.448 317.873 74.656 318.385 75.392C318.913 76.112 319.761 76.472 320.929 76.472C321.665 76.472 322.273 76.28 322.753 75.896C323.249 75.512 323.577 74.848 323.737 73.904L325.009 74.264ZM320.425 65.648C319.481 65.648 318.777 66.008 318.313 66.728C317.849 67.448 317.617 68.632 317.617 70.28H323.017V70.208C323.049 70 323.073 69.8 323.089 69.608C323.105 69.4 323.113 69.216 323.113 69.056C323.113 67.856 322.865 66.992 322.369 66.464C321.873 65.92 321.225 65.648 320.425 65.648Z" fill="#D9B470"/>
</g>
<defs>
<clipPath id="clip0_249_59">
<rect width="330" height="82" fill="white"/>
</clipPath>
</defs>
</svg>
